# xmcd CD database file
#
# Track frame offsets:
#	150
#	36629
#	69450
#	93645
#	122237
#	163192
#	191806
#
# Disc length: 2970 seconds
#
# Revision: 1
# Processed by: cddbd v1.5.2PL0 Copyright (c) Steve Scherf et al.
# Submitted via: CDex 1.51
#
DISCID=6a0b9807
DTITLE=Jean-Marc Hébert - L'Autre
DYEAR=2006
DGENRE=Jazz
TTITLE0=Montagne Sacrée
TTITLE1=Salif
TTITLE2=L'Autre
TTITLE3=La Trève
TTITLE4=Asie Mineur
TTITLE5=Asie Majeur
TTITLE6=Temporel
EXTD=YEAR: 2006
EXTT0=
EXTT1=
EXTT2=
EXTT3=
EXTT4=
EXTT5=
EXTT6=
PLAYORDER=
